<svg width="26" height="25" viewBox="0 0 26 25" fill="none" xmlns="http://www.w3.org/2000/svg">
<g opacity="0.9" filter="url(#filter0_d)">
<path fill-rule="evenodd" clip-rule="evenodd" d="M20.2471 17.6565C22.3 15.6 23.5 13.4581 23.5 10.964C23.5 5.90285 18.8665 1.80005 13.15 1.80005C7.43355 1.80005 2.8 5.90285 2.8 10.9642C2.8 16.0255 7.58346 19.5 13.3 19.5V20.4112C13.3 21.2976 14.2195 21.864 14.9905 21.4269C16.5103 20.5652 18.7304 19.1759 20.2471 17.6565ZM8.1222 9.72826C8.93918 9.72826 9.60145 10.3858 9.60145 11.1957C9.60145 12.0072 8.93918 12.6646 8.1222 12.6646C7.30661 12.6646 6.64431 12.0072 6.64431 11.1957C6.64431 10.3858 7.30661 9.72826 8.1222 9.72826ZM14.6286 11.1957C14.6286 10.3858 13.9666 9.72826 13.15 9.72826C12.3335 9.72826 11.6714 10.3858 11.6714 11.1957C11.6715 12.0072 12.3335 12.6646 13.15 12.6646C13.9666 12.6646 14.6286 12.0072 14.6286 11.1957ZM18.1776 9.72826C18.9944 9.72826 19.6557 10.3858 19.6557 11.1957C19.6557 12.0072 18.9944 12.6646 18.1776 12.6646C17.3607 12.6646 16.6985 12.0072 16.6986 11.1957C16.6986 10.3858 17.3608 9.72826 18.1776 9.72826Z" fill="#161823"/>
</g>
<path opacity="0.1" fill-rule="evenodd" clip-rule="evenodd" d="M13.3001 19.5C13.3001 19.5 19.0334 19.057 21.4301 15.9883C19.0334 19.3639 16.6368 21.2051 14.5398 21.8189C12.4428 22.4326 13.3001 19.5 13.3001 19.5Z" fill="url(#paint0_linear)"/>
<defs>
<filter id="filter0_d" x="0.800049" y="0.800049" width="24.7" height="23.7776" filterUnits="userSpaceOnUse" color-interpolation-filters="sRGB">
<feFlood flood-opacity="0" result="BackgroundImageFix"/>
<feColorMatrix in="SourceAlpha" type="matrix" values="0 0 0 0 0 0 0 0 0 0 0 0 0 0 0 0 0 0 127 0"/>
<feOffset dy="1"/>
<feGaussianBlur stdDeviation="1"/>
<feColorMatrix type="matrix" values="0 0 0 0 0 0 0 0 0 0 0 0 0 0 0 0 0 0 0.15 0"/>
<feBlend mode="normal" in2="BackgroundImageFix" result="effect1_dropShadow"/>
<feBlend mode="normal" in="SourceGraphic" in2="effect1_dropShadow" result="shape"/>
</filter>
<linearGradient id="paint0_linear" x1="11.2052" y1="18.835" x2="12.154" y2="21.8169" gradientUnits="userSpaceOnUse">
<stop/>
<stop offset="1" stop-opacity="0.01"/>
</linearGradient>
</defs>
</svg>
