<svg width="50" height="50" viewBox="0 0 50 50" fill="none" xmlns="http://www.w3.org/2000/svg">
<circle cx="25" cy="25" r="25" fill="#161823" fill-opacity="0.2"/>
<path fill-rule="evenodd" clip-rule="evenodd" d="M29.4568 24.0072C29.8056 23.6442 30.0768 23.2006 30.2512 22.7166C30.4644 22.152 30.5806 21.547 30.6 20.9219C30.6 20.4581 30.5419 19.9943 30.445 19.5506C30.3094 18.9457 30.0187 18.381 29.6312 17.8971C29.1467 17.2719 28.5073 16.788 27.7903 16.5057C26.9377 16.1628 26.027 15.9814 25.1163 16.0015C24.38 16.0015 23.663 16.1225 22.946 16.3242C22.2872 16.5258 21.6672 16.8485 21.144 17.3123C20.6402 17.7559 20.2332 18.3004 19.962 18.9255C19.7101 19.4902 19.5357 20.0951 19.4775 20.7001C19.4194 21.2446 19.4 21.8092 19.4 22.394H23.1592L23.1979 21.4865C23.2367 21.0429 23.4305 20.6194 23.7405 20.3169C24.0699 20.0145 24.4962 19.833 24.9419 19.8531C25.3294 19.8128 25.6976 19.9338 25.9883 20.2161C26.2208 20.5388 26.3564 20.9017 26.3952 21.305C26.3952 21.547 26.2983 21.8092 26.1433 21.9907C25.9108 22.273 25.6588 22.515 25.3876 22.7166C25.0194 22.9385 24.6706 23.2208 24.3218 23.5031C24.0312 23.7451 23.7599 24.0072 23.5467 24.3097C23.353 24.6324 23.1979 24.9752 23.1204 25.3583C23.0429 25.7213 23.0042 26.0843 23.0042 26.4473V26.4473C23.0042 26.9716 23.0042 27.4757 23.0236 28H26.899V27.1732C26.8796 26.8102 26.9765 26.4473 27.1703 26.1246C27.4415 25.7213 27.8097 25.3583 28.2166 25.076C28.6429 24.7534 29.0692 24.3904 29.4568 24.0072ZM23.097 30H27.097V34H23.097V30Z" fill="white"/>
</svg>
