<svg width="24" height="24" viewBox="0 0 24 24" fill="none" xmlns="http://www.w3.org/2000/svg">
<g opacity="0.9" filter="url(#filter0_d)">
<path fill-rule="evenodd" clip-rule="evenodd" d="M16.4879 2.2002C14.7383 2.2002 13.148 2.92924 12.1795 4.30929C10.8503 2.92924 9.25845 2.2002 7.51194 2.2002C4.17817 2.2002 1.40826 5.08936 1.40826 8.52747C1.40826 8.76157 1.41932 8.86799 1.40826 8.87898C1.42564 9.67168 1.79993 11.1002 2.09993 11.7002C4.11916 16.0711 10.4999 20.7002 10.7999 21.0002C11.0999 21.3002 11.3999 21.6002 11.9999 21.6002C12.5999 21.6002 12.8999 21.3002 13.1999 21.0002C13.4999 20.7002 19.0763 16.4872 21.5145 12.3941C21.6204 12.1145 21.6899 11.9763 21.8735 11.6911C21.9899 11.3966 22.1068 11.1298 22.2326 10.9881C22.4542 10.199 22.579 9.60179 22.5916 8.87898C22.5821 8.85846 22.5916 8.75998 22.5916 8.52747C22.5916 5.09095 19.8201 2.2002 16.4879 2.2002Z" fill="#FE2C55"/>
</g>
<path opacity="0.03" fill-rule="evenodd" clip-rule="evenodd" d="M2.09991 11.691C4.11914 16.0619 10.8047 21.0637 11.1023 21.1819C11.3999 21.3001 11.6999 21.6001 11.9999 21.6001C12.2999 21.6001 12.5999 21.6001 12.8999 21.3001C13.1999 21.0001 19.0763 16.4871 21.5145 12.394C21.6204 12.1144 21.6899 11.9762 21.8735 11.691C21.9899 11.3965 22.1068 11.1296 22.2325 10.9879C22.4542 10.1989 22.5789 9.60167 22.5916 8.87886C22.5821 8.85833 22.5916 8.75986 22.5916 8.52734C21.5145 10.8001 15.1204 18.3001 11.9999 18.6001C8.87943 18.9001 2.43254 12.3516 2.09991 11.691Z" fill="black"/>
<defs>
<filter id="filter0_d" x="0.408264" y="2.2002" width="23.1833" height="21.4" filterUnits="userSpaceOnUse" color-interpolation-filters="sRGB">
<feFlood flood-opacity="0" result="BackgroundImageFix"/>
<feColorMatrix in="SourceAlpha" type="matrix" values="0 0 0 0 0 0 0 0 0 0 0 0 0 0 0 0 0 0 127 0"/>
<feOffset dy="1"/>
<feGaussianBlur stdDeviation="0.5"/>
<feColorMatrix type="matrix" values="0 0 0 0 0 0 0 0 0 0 0 0 0 0 0 0 0 0 0.12 0"/>
<feBlend mode="normal" in2="BackgroundImageFix" result="effect1_dropShadow"/>
<feBlend mode="normal" in="SourceGraphic" in2="effect1_dropShadow" result="shape"/>
</filter>
</defs>
</svg>
